<svg width="60" height="60" viewBox="0 0 60 60" fill="none" xmlns="http://www.w3.org/2000/svg">
<path d="M30 22.8562C28.5872 22.8568 27.2063 23.2762 26.0319 24.0615C24.8574 24.8468 23.9422 25.9627 23.4019 27.2681C22.8617 28.5735 22.7206 30.0097 22.9965 31.3953C23.2725 32.7809 23.9531 34.0535 24.9522 35.0523C25.9514 36.0511 27.2243 36.7313 28.61 37.0067C29.9957 37.2821 31.4319 37.1405 32.7371 36.5997C34.0423 36.0589 35.1578 35.1433 35.9427 33.9686C36.7275 32.7938 37.1464 31.4128 37.1464 30C37.145 28.1053 36.3915 26.2887 35.0516 24.9492C33.7116 23.6097 31.8947 22.857 30 22.8562ZM46.7022 17.3652C46.3386 16.4435 45.7894 15.6065 45.0888 14.9059C44.3882 14.2053 43.5511 13.6561 42.6295 13.2924C39.817 12.1821 33.1205 12.4312 30 12.4312C26.8795 12.4312 20.1897 12.1728 17.3692 13.2924C16.4476 13.6561 15.6105 14.2053 14.9099 14.9059C14.2093 15.6065 13.6601 16.4435 13.2964 17.3652C12.1875 20.1777 12.4353 26.8808 12.4353 29.9987C12.4353 33.1165 12.1875 39.8116 13.3018 42.6335C13.6655 43.5551 14.2146 44.3922 14.9152 45.0928C15.6158 45.7934 16.4529 46.3426 17.3746 46.7062C20.1871 47.8165 26.8835 47.5674 30.0054 47.5674C33.1272 47.5674 39.8143 47.8259 42.6348 46.7062C43.5565 46.3426 44.3935 45.7934 45.0941 45.0928C45.7947 44.3922 46.3439 43.5551 46.7076 42.6335C47.8259 39.821 47.5687 33.1179 47.5687 30C47.5687 26.8821 47.8259 20.1884 46.7076 17.3665L46.7022 17.3652ZM30 40.9821C27.8279 40.9821 25.7047 40.3381 23.8986 39.1313C22.0926 37.9246 20.685 36.2094 19.8538 34.2027C19.0226 32.196 18.8051 29.9878 19.2289 27.8575C19.6526 25.7272 20.6986 23.7703 22.2345 22.2345C23.7703 20.6986 25.7272 19.6526 27.8575 19.2289C29.9878 18.8051 32.196 19.0226 34.2027 19.8538C36.2094 20.685 37.9246 22.0926 39.1313 23.8986C40.3381 25.7047 40.9821 27.8279 40.9821 30C40.9839 31.4427 40.701 32.8716 40.1498 34.2048C39.5985 35.538 38.7896 36.7493 37.7695 37.7695C36.7493 38.7896 35.538 39.5985 34.2048 40.1498C32.8716 40.701 31.4427 40.9839 30 40.9821ZM41.4348 21.1205C40.9278 21.1208 40.432 20.9707 40.0103 20.6892C39.5886 20.4077 39.2598 20.0074 39.0656 19.539C38.8714 19.0707 38.8204 18.5552 38.9192 18.0579C39.0179 17.5605 39.262 17.1037 39.6204 16.745C39.9789 16.3864 40.4356 16.1421 40.9329 16.0431C41.4302 15.9441 41.9457 15.9948 42.4141 16.1887C42.8826 16.3827 43.283 16.7113 43.5648 17.1329C43.8465 17.5544 43.9969 18.0501 43.9969 18.5571C43.9983 18.8939 43.9332 19.2275 43.8054 19.539C43.6775 19.8505 43.4894 20.1337 43.2519 20.3724C43.0144 20.6111 42.7321 20.8005 42.4212 20.9298C42.1103 21.0591 41.7769 21.1257 41.4402 21.1259L41.4348 21.1205ZM53.5714 0H6.42857C4.72361 0 3.08848 0.677294 1.88288 1.88289C0.677294 3.08848 0 4.72361 0 6.42857L0 53.5714C0 55.2764 0.677294 56.9115 1.88288 58.1171C3.08848 59.3227 4.72361 60 6.42857 60H53.5714C55.2764 60 56.9115 59.3227 58.1171 58.1171C59.3227 56.9115 60 55.2764 60 53.5714V6.42857C60 4.72361 59.3227 3.08848 58.1171 1.88289C56.9115 0.677294 55.2764 0 53.5714 0ZM51.2786 38.8393C51.1058 42.2719 50.3223 45.3134 47.8165 47.8125C45.3107 50.3116 42.2719 51.1112 38.8433 51.2746C35.3062 51.4741 24.7018 51.4741 21.1647 51.2746C17.7321 51.1018 14.7013 50.317 12.1915 47.8125C9.6817 45.308 8.89286 42.2652 8.72946 38.8393C8.52991 35.3009 8.52991 24.6951 8.72946 21.1607C8.90223 17.7281 9.67634 14.6866 12.1915 12.1875C14.7067 9.68839 17.7455 8.89821 21.1647 8.73482C24.7018 8.53527 35.3062 8.53527 38.8433 8.73482C42.2759 8.90759 45.3161 9.69241 47.8165 12.1969C50.317 14.7013 51.1152 17.7442 51.2786 21.1768C51.4781 24.7018 51.4781 35.2982 51.2786 38.8393Z" fill="white"/>
</svg>
