<svg width="54" height="63" viewBox="0 0 54 63" fill="none" xmlns="http://www.w3.org/2000/svg">
<path d="M53.5413 26.1571V5.15746C53.5413 2.39604 51.3028 0.157471 48.5413 0.157471H29.0287H26.3205C24.8632 0.157471 23.6818 1.33888 23.6818 2.79623V5.82878V26.8284C23.6818 29.5898 25.9203 31.8284 28.6818 31.8284H50.8332C52.3289 31.8284 53.5413 30.6159 53.5413 29.1202V28.9559V26.1571Z" fill="#FF5E29"/>
<path d="M28.3623 17.5144H29.9051H31.4478H45.4114V31.478V33.0207V34.5634V37.9258C45.4114 38.3609 45.4114 38.7565 45.3718 39.1916C45.3323 39.7058 45.2927 40.2201 45.2136 40.7343C45.1345 41.2486 45.0554 41.7628 44.9367 42.2771C44.106 46.1536 42.1282 49.6346 39.4383 52.3641C35.7595 56.0429 30.6566 58.3372 25.0396 58.3372C13.8054 58.3372 4.66772 49.1995 4.66772 37.9653C4.66772 32.3483 6.96203 27.2454 10.6408 23.5666C13.3703 20.8372 16.8513 18.8989 20.7278 18.0682V14.2312C20.7278 13.9147 20.7278 13.6378 20.7278 13.3214C15.7041 14.1916 11.0364 16.6046 7.35759 20.2834C2.61076 24.9115 0 31.2011 0 37.8862C0 44.5714 2.61076 50.8214 7.31804 55.5682C12.0253 60.2755 18.3149 62.8862 25 62.8862C31.6851 62.8862 37.9351 60.2755 42.682 55.5682C47.1123 51.1378 49.6835 45.3229 49.9604 39.1125C49.9604 38.9147 49.9604 38.7169 50 38.5191C50 38.4005 50 38.3214 50 38.2027C50 38.084 50 38.0049 50 37.8862V34.4843V12.8862H31.4478H29.9051H28.3623C28.3228 13.3214 28.3228 13.7169 28.3228 14.1521L28.3623 17.5144Z" fill="white"/>
</svg>
